<svg xmlns="http://www.w3.org/2000/svg" width="1200" height="1200" viewBox="0 0 1200 1200" fill="none"><rect width="1200" height="1200" fill="#EAEAEA" rx="3"/><g opacity=".5"><g opacity=".5"><path fill="#FAFAFA" d="M600 736c-75.5 0-136.6-61.2-136.6-136.6 0-75.5 61.2-136.6 136.6-136.6 75.5 0 136.6 61.2 136.6 136.6 0 75.5-61.2 136.6-136.6 136.6Z"/><path stroke="#C9C9C9" stroke-width="2.4" d="M600 736c-75.5 0-136.6-61.2-136.6-136.6 0-75.5 61.2-136.6 136.6-136.6 75.5 0 136.6 61.2 136.6 136.6 0 75.5-61.2 136.6-136.6 136.6Z"/></g><path stroke="url(#a)" stroke-width="2.4" d="M0-1.2h553.6" transform="scale(1 -1) rotate(45 1163.1 91.2)"/><path stroke="url(#b)" stroke-width="2.4" d="M404.8 598.7h391.7"/><path stroke="url(#c)" stroke-width="2.4" d="M599.5 795.7V404"/><path stroke="url(#d)" stroke-width="2.4" d="M795.7 796.6l-391.4-391.4"/><path fill="#fff" d="M600 656.7c-31.4 0-56.8-25.4-56.8-56.8 0-31.4 25.4-56.8 56.8-56.8 31.4 0 56.8 25.4 56.8 56.8 0 31.4-25.4 56.8-56.8 56.8Z"/><g clip-path="url(#e)"><path fill="#666" fill-rule="evenodd" d="M616.4 586.6h-31.4v16.2l3.6-3.6.5-.5h9.1l.1-.1 8.5-8.5h2.6l7.2 7.2V586.6Zm-15.7 14.7l3.7 3.7 1.3 1.3-2.6 2.6-1.3-1.3-5.2-5.2h-6.1l-5.5 5.5-.1.1v2.9a2.4 2.4 0 0 0 2.4 2.4h26.6a2.4 2.4 0 0 0 2.4-2.4v-8.3l-8.5-8.5-7.2 7.2-.1.1Zm-19.3 5.4v4.1a6 6 0 0 0 6 6h26.6a6 6 0 0 0 6-6v-7.1l1.4-1.4-1.3-1.3-.1-.1v-18h-38.7v23.4l-.1.1.1.1Z" clip-rule="evenodd"/></g><path stroke="#C9C9C9" stroke-width="2.4" d="M600 656.7c-31.4 0-56.8-25.4-56.8-56.8 0-31.4 25.4-56.8 56.8-56.8 31.4 0 56.8 25.4 56.8 56.8 0 31.4-25.4 56.8-56.8 56.8Z"/></g><defs><linearGradient id="a" x1="554" x2="-0.5" y1="0.1" y2="0.1" gradientUnits="userSpaceOnUse"><stop stop-color="#C9C9C9" stop-opacity="0"/><stop offset=".2" stop-color="#C9C9C9"/><stop offset=".8" stop-color="#C9C9C9"/><stop offset="1" stop-color="#C9C9C9" stop-opacity="0"/></linearGradient><linearGradient id="b" x1="796.9" x2="404.5" y1="599.9" y2="599.9" gradientUnits="userSpaceOnUse"><stop stop-color="#C9C9C9" stop-opacity="0"/><stop offset=".2" stop-color="#C9C9C9"/><stop offset=".8" stop-color="#C9C9C9"/><stop offset="1" stop-color="#C9C9C9" stop-opacity="0"/></linearGradient><linearGradient id="c" x1="600.8" x2="600.8" y1="403.7" y2="796.1" gradientUnits="userSpaceOnUse"><stop stop-color="#C9C9C9" stop-opacity="0"/><stop offset=".2" stop-color="#C9C9C9"/><stop offset=".8" stop-color="#C9C9C9"/><stop offset="1" stop-color="#C9C9C9" stop-opacity="0"/></linearGradient><linearGradient id="d" x1="404.8" x2="796.9" y1="403.9" y2="796" gradientUnits="userSpaceOnUse"><stop stop-color="#C9C9C9" stop-opacity="0"/><stop offset=".2" stop-color="#C9C9C9"/><stop offset=".8" stop-color="#C9C9C9"/><stop offset="1" stop-color="#C9C9C9" stop-opacity="0"/></linearGradient><clipPath id="e"><path fill="#fff" d="M581.4 580.5h38.7v38.7h-38.7z"/></clipPath></defs></svg>